<svg xmlns="http://www.w3.org/2000/svg" viewBox="0 0 1440 264"><title>To Reach This Generation With The Hope Of Jesus Christ.</title><desc>Custom mission lettering adapted from DM Serif Display, SIL Open Font License. Bespoke lowercase s.</desc><g transform="translate(8.252 86.401) scale(0.106136 -0.106136)"><path transform="translate(0 0)" fill="#171717" stroke="#171717" stroke-width="20" stroke-linejoin="round" d="M132 0 134 10 158 19Q204 38 214 87L263 350Q271 392 280.5 443.5Q290 495 299.0 546.5Q308 598 315 640H272Q236 640 210.0 627.0Q184 614 163 585L83 476H73L110 660H664L632 476H622L585 577Q563 640 494 640H453L391 311Q381 260 370.5 201.5Q360 143 350 88Q341 36 389 16L402 10L400 0Z"/><path transform="translate(599 0)" fill="#171717" stroke="#171717" stroke-width="20" stroke-linejoin="round" d="M236 -15Q184 -15 141.0 5.5Q98 26 73.0 67.5Q48 109 48 173Q48 237 69.5 295.0Q91 353 130.0 398.5Q169 444 221.0 470.0Q273 496 334 496Q387 496 428.5 475.5Q470 455 494.5 414.0Q519 373 519 309Q519 246 497.5 187.5Q476 129 437.5 83.5Q399 38 347.5 11.5Q296 -15 236 -15ZM248 5Q279 5 304.5 33.5Q330 62 349.0 109.5Q368 157 378.0 214.5Q388 272 388 329Q388 412 371.0 444.0Q354 476 327 476Q295 476 268.0 448.0Q241 420 221.0 373.0Q201 326 190.0 269.0Q179 212 179 155Q179 70 199.0 37.5Q219 5 248 5Z"/><path transform="translate(1343 0)" fill="#171717" stroke="#171717" stroke-width="20" stroke-linejoin="round" d="M2 0 4 10 20 16Q60 32 67 72L119 350Q129 407 140.0 468.5Q151 530 161 589Q169 630 130 646L120 650L122 660H374Q487 660 541.0 618.5Q595 577 595 506Q595 445 553.0 398.0Q511 351 433 328L535 68Q551 30 585 14L592 10L589 0H410L309 304H245Q235 252 225.0 194.0Q215 136 204 71Q197 31 235 16L247 10L245 0ZM249 324H299Q380 326 420.5 373.5Q461 421 461 503Q461 640 347 640H309Z"/><path transform="translate(1985 0)" fill="#171717" stroke="#171717" stroke-width="20" stroke-linejoin="round" d="M220 -15Q145 -15 98.0 34.0Q51 83 51 173Q51 237 73.0 295.0Q95 353 134.5 398.5Q174 444 226.0 470.0Q278 496 339 496Q402 496 435.5 467.5Q469 439 469 392Q469 353 432.5 315.0Q396 277 330.0 246.5Q264 216 175 200Q176 131 205.0 99.0Q234 67 285 67Q328 67 364.0 90.5Q400 114 425 146L435 139Q415 100 383.5 65.0Q352 30 311.0 7.5Q270 -15 220 -15ZM332 469Q309 469 282.5 449.0Q256 429 232.5 394.5Q209 360 193.5 315.5Q178 271 175 221Q285 251 331.5 300.0Q378 349 378 411Q378 441 365.0 455.0Q352 469 332 469Z"/><path transform="translate(2441 0)" fill="#171717" stroke="#171717" stroke-width="20" stroke-linejoin="round" d="M155 -15Q127 -15 102.0 -2.0Q77 11 61.5 41.0Q46 71 46 120Q46 173 67.0 226.5Q88 280 123.0 328.5Q158 377 201.0 414.5Q244 452 290.0 474.0Q336 496 377 496Q397 496 414.5 488.5Q432 481 448 468L529 499L537 494L450 111Q443 83 443 65Q443 44 462 44Q476 44 494.5 57.0Q513 70 537 92L545 84Q530 60 507.5 37.5Q485 15 457.5 0.0Q430 -15 399 -15Q365 -15 344.0 5.5Q323 26 323 69Q323 83 324 96Q284 51 239.5 18.0Q195 -15 155 -15ZM164 165Q164 112 181.5 88.5Q199 65 228 65Q252 65 276.0 80.0Q300 95 328 123Q330 135 333 148L396 436Q383 452 365.0 458.0Q347 464 333 464Q290 464 243 413Q206 372 185.0 305.0Q164 238 164 165Z"/><path transform="translate(3000 0)" fill="#171717" stroke="#171717" stroke-width="20" stroke-linejoin="round" d="M219 -15Q145 -15 98.0 35.0Q51 85 51 175Q51 239 73.0 296.5Q95 354 134.5 399.0Q174 444 225.5 470.0Q277 496 336 496Q371 496 401.5 485.0Q432 474 450.5 454.0Q469 434 468 407Q467 380 451.0 364.5Q435 349 409 349Q381 349 364.0 366.0Q347 383 337 405L331 422Q317 455 306.5 461.5Q296 468 271 447Q244 424 220.5 385.0Q197 346 183.0 299.0Q169 252 169 203Q169 128 201.5 92.5Q234 57 289 57Q325 57 360.0 80.0Q395 103 425 144L439 134Q418 95 385.0 61.0Q352 27 309.5 6.0Q267 -15 219 -15Z"/><path transform="translate(3454 0)" fill="#171717" stroke="#171717" stroke-width="20" stroke-linejoin="round" d="M33 -6 27 0 118 436Q126 474 132.0 504.5Q138 535 145 573Q153 616 112 630L96 635L98 645L289 701L296 694L228 375Q278 427 334.5 461.5Q391 496 439 496Q471 496 491.5 476.5Q512 457 512 416Q512 395 508.0 372.5Q504 350 498 326L448 122Q444 103 440.0 89.5Q436 76 436 68Q436 47 454 47Q480 47 527 91L536 82Q512 45 471.0 15.0Q430 -15 378 -15Q345 -15 327.0 0.5Q309 16 309 44Q309 65 314.0 87.5Q319 110 326 134L371 310Q378 337 383.5 359.5Q389 382 389 398Q389 433 356 433Q307 433 227 353L197 214Q184 153 174.5 103.5Q165 54 156 0Z"/><path transform="translate(4220 0)" fill="#171717" stroke="#171717" stroke-width="20" stroke-linejoin="round" d="M132 0 134 10 158 19Q204 38 214 87L263 350Q271 392 280.5 443.5Q290 495 299.0 546.5Q308 598 315 640H272Q236 640 210.0 627.0Q184 614 163 585L83 476H73L110 660H664L632 476H622L585 577Q563 640 494 640H453L391 311Q381 260 370.5 201.5Q360 143 350 88Q341 36 389 16L402 10L400 0Z"/><path transform="translate(4819 0)" fill="#171717" stroke="#171717" stroke-width="20" stroke-linejoin="round" d="M33 -6 27 0 118 436Q126 474 132.0 504.5Q138 535 145 573Q153 616 112 630L96 635L98 645L289 701L296 694L228 375Q278 427 334.5 461.5Q391 496 439 496Q471 496 491.5 476.5Q512 457 512 416Q512 395 508.0 372.5Q504 350 498 326L448 122Q444 103 440.0 89.5Q436 76 436 68Q436 47 454 47Q480 47 527 91L536 82Q512 45 471.0 15.0Q430 -15 378 -15Q345 -15 327.0 0.5Q309 16 309 44Q309 65 314.0 87.5Q319 110 326 134L371 310Q378 337 383.5 359.5Q389 382 389 398Q389 433 356 433Q307 433 227 353L197 214Q184 153 174.5 103.5Q165 54 156 0Z"/><path transform="translate(5364 0)" fill="#171717" stroke="#171717" stroke-width="20" stroke-linejoin="round" d="M217 552Q189 552 168.5 570.5Q148 589 148 620Q148 655 172.5 677.5Q197 700 228 700Q258 700 277.0 681.0Q296 662 296 632Q296 598 272.0 575.0Q248 552 217 552ZM124 -15Q93 -15 73.0 1.0Q53 17 53 48Q53 66 57.0 91.0Q61 116 66 141L113 366Q122 407 84 424L68 432L69 443L257 497L267 488L189 126Q185 108 183.0 95.5Q181 83 181 71Q181 49 201 49Q216 49 231.0 58.5Q246 68 269 90L278 81Q253 44 214.5 14.5Q176 -15 124 -15Z"/><path transform="translate(5649 0)" fill="#171717" stroke="#171717" stroke-width="20" stroke-linejoin="round" d="M25 18 L57 159 L73 159 C70 80 110 14 180 14 C220 14 244 36 244 71 C244 108 214 132 166 165 C106 207 73 245 86 312 C101 399 173 496 291 496 C335 496 373 477 407 481 L377 350 L362 350 C365 421 335 475 279 475 C240 475 214 452 214 418 C214 383 246 354 294 322 C363 276 388 237 375 173 C357 74 273 -15 164 -15 C110 -15 70 7 25 18 Z"/><path transform="translate(6277 0)" fill="#171717" stroke="#171717" stroke-width="20" stroke-linejoin="round" d="M357 -17Q212 -17 130.0 59.5Q48 136 48 274Q48 360 77.5 433.5Q107 507 160.5 562.0Q214 617 285.5 647.5Q357 678 441 678Q546 678 636 628L612 471H602L564 575Q548 621 525.5 639.5Q503 658 453 658Q376 658 317.0 607.5Q258 557 225.0 469.5Q192 382 192 270Q192 187 214.5 127.0Q237 67 275.0 35.0Q313 3 361 3Q387 3 402.5 13.5Q418 24 423 55L429 86Q434 118 441.0 160.0Q448 202 453 241Q463 294 410 311L388 318L390 328H661L659 318L637 308Q600 293 592 252L549 25Q505 6 460.5 -5.5Q416 -17 357 -17Z"/><path transform="translate(6926 0)" fill="#171717" stroke="#171717" stroke-width="20" stroke-linejoin="round" d="M220 -15Q145 -15 98.0 34.0Q51 83 51 173Q51 237 73.0 295.0Q95 353 134.5 398.5Q174 444 226.0 470.0Q278 496 339 496Q402 496 435.5 467.5Q469 439 469 392Q469 353 432.5 315.0Q396 277 330.0 246.5Q264 216 175 200Q176 131 205.0 99.0Q234 67 285 67Q328 67 364.0 90.5Q400 114 425 146L435 139Q415 100 383.5 65.0Q352 30 311.0 7.5Q270 -15 220 -15ZM332 469Q309 469 282.5 449.0Q256 429 232.5 394.5Q209 360 193.5 315.5Q178 271 175 221Q285 251 331.5 300.0Q378 349 378 411Q378 441 365.0 455.0Q352 469 332 469Z"/><path transform="translate(7382 0)" fill="#171717" stroke="#171717" stroke-width="20" stroke-linejoin="round" d="M45 -7 36 0 113 368Q122 407 85 424L68 432L69 442L255 497L264 489L241 368Q293 427 347.0 461.5Q401 496 449 496Q481 496 502.0 476.5Q523 457 523 416Q523 395 519.0 372.5Q515 350 509 326L456 113Q452 97 450.0 86.5Q448 76 448 68Q448 47 465 47Q493 47 536 92L546 82Q521 45 480.0 15.0Q439 -15 389 -15Q356 -15 338.0 0.5Q320 16 320 44Q320 65 325.0 87.5Q330 110 336 134L375 290Q383 322 388.0 347.0Q393 372 393 393Q393 411 385.0 418.5Q377 426 363 426Q339 426 306.5 405.0Q274 384 235 339L207 213Q196 160 186.0 107.0Q176 54 166 0Z"/><path transform="translate(7935 0)" fill="#171717" stroke="#171717" stroke-width="20" stroke-linejoin="round" d="M220 -15Q145 -15 98.0 34.0Q51 83 51 173Q51 237 73.0 295.0Q95 353 134.5 398.5Q174 444 226.0 470.0Q278 496 339 496Q402 496 435.5 467.5Q469 439 469 392Q469 353 432.5 315.0Q396 277 330.0 246.5Q264 216 175 200Q176 131 205.0 99.0Q234 67 285 67Q328 67 364.0 90.5Q400 114 425 146L435 139Q415 100 383.5 65.0Q352 30 311.0 7.5Q270 -15 220 -15ZM332 469Q309 469 282.5 449.0Q256 429 232.5 394.5Q209 360 193.5 315.5Q178 271 175 221Q285 251 331.5 300.0Q378 349 378 411Q378 441 365.0 455.0Q352 469 332 469Z"/><path transform="translate(8391 0)" fill="#171717" stroke="#171717" stroke-width="20" stroke-linejoin="round" d="M46 -7 36 0 112 366Q117 392 109.0 404.5Q101 417 82 425L67 432L69 442L243 497L253 488L226 323Q247 371 275.0 410.0Q303 449 334.0 472.5Q365 496 396 496Q427 496 446.0 479.5Q465 463 465 436Q465 408 448.5 390.0Q432 372 404 372Q382 372 362.0 383.5Q342 395 323 417Q288 391 263.0 349.5Q238 308 217 259L207 213Q196 160 186.0 107.0Q176 54 166 0Z"/><path transform="translate(8817 0)" fill="#171717" stroke="#171717" stroke-width="20" stroke-linejoin="round" d="M155 -15Q127 -15 102.0 -2.0Q77 11 61.5 41.0Q46 71 46 120Q46 173 67.0 226.5Q88 280 123.0 328.5Q158 377 201.0 414.5Q244 452 290.0 474.0Q336 496 377 496Q397 496 414.5 488.5Q432 481 448 468L529 499L537 494L450 111Q443 83 443 65Q443 44 462 44Q476 44 494.5 57.0Q513 70 537 92L545 84Q530 60 507.5 37.5Q485 15 457.5 0.0Q430 -15 399 -15Q365 -15 344.0 5.5Q323 26 323 69Q323 83 324 96Q284 51 239.5 18.0Q195 -15 155 -15ZM164 165Q164 112 181.5 88.5Q199 65 228 65Q252 65 276.0 80.0Q300 95 328 123Q330 135 333 148L396 436Q383 452 365.0 458.0Q347 464 333 464Q290 464 243 413Q206 372 185.0 305.0Q164 238 164 165Z"/><path transform="translate(9376 0)" fill="#171717" stroke="#171717" stroke-width="20" stroke-linejoin="round" d="M144 -15Q113 -15 92.5 1.5Q72 18 72 50Q72 70 76.0 93.5Q80 117 85 144L154 460H71L74 472L110 476Q138 479 159.0 490.0Q180 501 199 521L295 618H310L282 481H391L386 460H277L208 127Q204 108 202.0 94.5Q200 81 200 72Q200 62 206.0 56.0Q212 50 219 50Q233 50 249.0 61.5Q265 73 289 96L301 86Q276 49 236.0 17.0Q196 -15 144 -15Z"/><path transform="translate(9718 0)" fill="#171717" stroke="#171717" stroke-width="20" stroke-linejoin="round" d="M217 552Q189 552 168.5 570.5Q148 589 148 620Q148 655 172.5 677.5Q197 700 228 700Q258 700 277.0 681.0Q296 662 296 632Q296 598 272.0 575.0Q248 552 217 552ZM124 -15Q93 -15 73.0 1.0Q53 17 53 48Q53 66 57.0 91.0Q61 116 66 141L113 366Q122 407 84 424L68 432L69 443L257 497L267 488L189 126Q185 108 183.0 95.5Q181 83 181 71Q181 49 201 49Q216 49 231.0 58.5Q246 68 269 90L278 81Q253 44 214.5 14.5Q176 -15 124 -15Z"/><path transform="translate(10003 0)" fill="#171717" stroke="#171717" stroke-width="20" stroke-linejoin="round" d="M236 -15Q184 -15 141.0 5.5Q98 26 73.0 67.5Q48 109 48 173Q48 237 69.5 295.0Q91 353 130.0 398.5Q169 444 221.0 470.0Q273 496 334 496Q387 496 428.5 475.5Q470 455 494.5 414.0Q519 373 519 309Q519 246 497.5 187.5Q476 129 437.5 83.5Q399 38 347.5 11.5Q296 -15 236 -15ZM248 5Q279 5 304.5 33.5Q330 62 349.0 109.5Q368 157 378.0 214.5Q388 272 388 329Q388 412 371.0 444.0Q354 476 327 476Q295 476 268.0 448.0Q241 420 221.0 373.0Q201 326 190.0 269.0Q179 212 179 155Q179 70 199.0 37.5Q219 5 248 5Z"/><path transform="translate(10526 0)" fill="#171717" stroke="#171717" stroke-width="20" stroke-linejoin="round" d="M45 -7 36 0 113 368Q122 407 85 424L68 432L69 442L255 497L264 489L241 368Q293 427 347.0 461.5Q401 496 449 496Q481 496 502.0 476.5Q523 457 523 416Q523 395 519.0 372.5Q515 350 509 326L456 113Q452 97 450.0 86.5Q448 76 448 68Q448 47 465 47Q493 47 536 92L546 82Q521 45 480.0 15.0Q439 -15 389 -15Q356 -15 338.0 0.5Q320 16 320 44Q320 65 325.0 87.5Q330 110 336 134L375 290Q383 322 388.0 347.0Q393 372 393 393Q393 411 385.0 418.5Q377 426 363 426Q339 426 306.5 405.0Q274 384 235 339L207 213Q196 160 186.0 107.0Q176 54 166 0Z"/><path transform="translate(11300 0)" fill="#171717" stroke="#171717" stroke-width="20" stroke-linejoin="round" d="M181 -4 124 596Q121 630 88 644L76 650L78 660H317L315 650L293 642Q261 631 263 595L293 151L477 519L468 594Q464 629 431 642L409 650L411 660H654L652 650L625 640Q592 628 597 593L646 149L845 594Q859 628 825 642L805 650L807 660H954L952 650L928 642Q908 635 895.0 623.0Q882 611 873 592L609 -4H538L483 466L251 -4Z"/><path transform="translate(12176 0)" fill="#171717" stroke="#171717" stroke-width="20" stroke-linejoin="round" d="M217 552Q189 552 168.5 570.5Q148 589 148 620Q148 655 172.5 677.5Q197 700 228 700Q258 700 277.0 681.0Q296 662 296 632Q296 598 272.0 575.0Q248 552 217 552ZM124 -15Q93 -15 73.0 1.0Q53 17 53 48Q53 66 57.0 91.0Q61 116 66 141L113 366Q122 407 84 424L68 432L69 443L257 497L267 488L189 126Q185 108 183.0 95.5Q181 83 181 71Q181 49 201 49Q216 49 231.0 58.5Q246 68 269 90L278 81Q253 44 214.5 14.5Q176 -15 124 -15Z"/><path transform="translate(12461 0)" fill="#171717" stroke="#171717" stroke-width="20" stroke-linejoin="round" d="M144 -15Q113 -15 92.5 1.5Q72 18 72 50Q72 70 76.0 93.5Q80 117 85 144L154 460H71L74 472L110 476Q138 479 159.0 490.0Q180 501 199 521L295 618H310L282 481H391L386 460H277L208 127Q204 108 202.0 94.5Q200 81 200 72Q200 62 206.0 56.0Q212 50 219 50Q233 50 249.0 61.5Q265 73 289 96L301 86Q276 49 236.0 17.0Q196 -15 144 -15Z"/><path transform="translate(12803 0)" fill="#171717" stroke="#171717" stroke-width="20" stroke-linejoin="round" d="M33 -6 27 0 118 436Q126 474 132.0 504.5Q138 535 145 573Q153 616 112 630L96 635L98 645L289 701L296 694L228 375Q278 427 334.5 461.5Q391 496 439 496Q471 496 491.5 476.5Q512 457 512 416Q512 395 508.0 372.5Q504 350 498 326L448 122Q444 103 440.0 89.5Q436 76 436 68Q436 47 454 47Q480 47 527 91L536 82Q512 45 471.0 15.0Q430 -15 378 -15Q345 -15 327.0 0.5Q309 16 309 44Q309 65 314.0 87.5Q319 110 326 134L371 310Q378 337 383.5 359.5Q389 382 389 398Q389 433 356 433Q307 433 227 353L197 214Q184 153 174.5 103.5Q165 54 156 0Z"/></g><g transform="translate(146.813 211.463) scale(0.106136 -0.106136)"><path transform="translate(0 0)" fill="#171717" stroke="#171717" stroke-width="20" stroke-linejoin="round" d="M132 0 134 10 158 19Q204 38 214 87L263 350Q271 392 280.5 443.5Q290 495 299.0 546.5Q308 598 315 640H272Q236 640 210.0 627.0Q184 614 163 585L83 476H73L110 660H664L632 476H622L585 577Q563 640 494 640H453L391 311Q381 260 370.5 201.5Q360 143 350 88Q341 36 389 16L402 10L400 0Z"/><path transform="translate(599 0)" fill="#171717" stroke="#171717" stroke-width="20" stroke-linejoin="round" d="M33 -6 27 0 118 436Q126 474 132.0 504.5Q138 535 145 573Q153 616 112 630L96 635L98 645L289 701L296 694L228 375Q278 427 334.5 461.5Q391 496 439 496Q471 496 491.5 476.5Q512 457 512 416Q512 395 508.0 372.5Q504 350 498 326L448 122Q444 103 440.0 89.5Q436 76 436 68Q436 47 454 47Q480 47 527 91L536 82Q512 45 471.0 15.0Q430 -15 378 -15Q345 -15 327.0 0.5Q309 16 309 44Q309 65 314.0 87.5Q319 110 326 134L371 310Q378 337 383.5 359.5Q389 382 389 398Q389 433 356 433Q307 433 227 353L197 214Q184 153 174.5 103.5Q165 54 156 0Z"/><path transform="translate(1144 0)" fill="#171717" stroke="#171717" stroke-width="20" stroke-linejoin="round" d="M220 -15Q145 -15 98.0 34.0Q51 83 51 173Q51 237 73.0 295.0Q95 353 134.5 398.5Q174 444 226.0 470.0Q278 496 339 496Q402 496 435.5 467.5Q469 439 469 392Q469 353 432.5 315.0Q396 277 330.0 246.5Q264 216 175 200Q176 131 205.0 99.0Q234 67 285 67Q328 67 364.0 90.5Q400 114 425 146L435 139Q415 100 383.5 65.0Q352 30 311.0 7.5Q270 -15 220 -15ZM332 469Q309 469 282.5 449.0Q256 429 232.5 394.5Q209 360 193.5 315.5Q178 271 175 221Q285 251 331.5 300.0Q378 349 378 411Q378 441 365.0 455.0Q352 469 332 469Z"/><path transform="translate(1821 0)" fill="#171717" stroke="#171717" stroke-width="20" stroke-linejoin="round" d="M2 0 4 10 29 18Q59 31 64 61L119 350Q129 404 141.0 470.5Q153 537 163 596Q169 631 135 644L120 650L122 660H368L366 650L340 642Q306 630 300 596L255 350H503Q509 383 516.5 425.0Q524 467 531.5 511.0Q539 555 545 593Q551 631 516 645L501 650L503 660H749L747 650L723 642Q690 630 683 596L629 311Q619 255 608.0 193.5Q597 132 585 62Q580 30 609 19L632 10L630 0H381L383 10L412 20Q441 30 447 60L498 330H250Q239 273 226.5 203.5Q214 134 202 61Q197 30 225 18L244 10L242 0Z"/><path transform="translate(2522 0)" fill="#171717" stroke="#171717" stroke-width="20" stroke-linejoin="round" d="M236 -15Q184 -15 141.0 5.5Q98 26 73.0 67.5Q48 109 48 173Q48 237 69.5 295.0Q91 353 130.0 398.5Q169 444 221.0 470.0Q273 496 334 496Q387 496 428.5 475.5Q470 455 494.5 414.0Q519 373 519 309Q519 246 497.5 187.5Q476 129 437.5 83.5Q399 38 347.5 11.5Q296 -15 236 -15ZM248 5Q279 5 304.5 33.5Q330 62 349.0 109.5Q368 157 378.0 214.5Q388 272 388 329Q388 412 371.0 444.0Q354 476 327 476Q295 476 268.0 448.0Q241 420 221.0 373.0Q201 326 190.0 269.0Q179 212 179 155Q179 70 199.0 37.5Q219 5 248 5Z"/><path transform="translate(3045 0)" fill="#171717" stroke="#171717" stroke-width="20" stroke-linejoin="round" d="M211 -15Q185 -15 161 -4Q150 -54 142.0 -94.0Q134 -134 128 -170Q123 -203 156 -212L181 -220L179 -230H-62L-60 -220L-41 -215Q-6 -205 1 -170L114 369Q121 408 86 424L67 432L69 443L254 497L264 489L243 384Q282 433 332.5 464.5Q383 496 427 496Q468 496 498.0 467.0Q528 438 528 362Q528 307 509.5 253.0Q491 199 458.5 150.5Q426 102 385.0 65.0Q344 28 299.0 6.5Q254 -15 211 -15ZM340 422Q317 422 290.0 404.0Q263 386 237 354L178 65Q215 28 255 28Q314 28 352 90Q366 114 378.0 151.0Q390 188 397.5 231.5Q405 275 405 316Q405 366 388.5 394.0Q372 422 340 422Z"/><path transform="translate(3568 0)" fill="#171717" stroke="#171717" stroke-width="20" stroke-linejoin="round" d="M220 -15Q145 -15 98.0 34.0Q51 83 51 173Q51 237 73.0 295.0Q95 353 134.5 398.5Q174 444 226.0 470.0Q278 496 339 496Q402 496 435.5 467.5Q469 439 469 392Q469 353 432.5 315.0Q396 277 330.0 246.5Q264 216 175 200Q176 131 205.0 99.0Q234 67 285 67Q328 67 364.0 90.5Q400 114 425 146L435 139Q415 100 383.5 65.0Q352 30 311.0 7.5Q270 -15 220 -15ZM332 469Q309 469 282.5 449.0Q256 429 232.5 394.5Q209 360 193.5 315.5Q178 271 175 221Q285 251 331.5 300.0Q378 349 378 411Q378 441 365.0 455.0Q352 469 332 469Z"/><path transform="translate(4245 0)" fill="#171717" stroke="#171717" stroke-width="20" stroke-linejoin="round" d="M299 -17Q227 -17 171.0 14.0Q115 45 83.0 106.0Q51 167 51 258Q51 341 77.0 416.0Q103 491 151.5 550.0Q200 609 268.5 643.0Q337 677 421 677Q496 677 552.0 643.5Q608 610 639.0 548.5Q670 487 670 403Q670 319 644.0 243.0Q618 167 569.5 108.5Q521 50 452.5 16.5Q384 -17 299 -17ZM309 3Q354 3 394.0 36.5Q434 70 464.5 128.5Q495 187 512.5 264.5Q530 342 530 429Q530 539 504.0 598.0Q478 657 416 657Q370 657 329.0 624.0Q288 591 257.0 533.0Q226 475 208.0 398.5Q190 322 190 235Q190 123 218.5 63.0Q247 3 309 3Z"/><path transform="translate(4912 0)" fill="#171717" stroke="#171717" stroke-width="20" stroke-linejoin="round" d="M-45 -240Q-87 -240 -121.0 -221.0Q-155 -202 -155 -167Q-155 -141 -138.0 -127.0Q-121 -113 -98 -113Q-75 -113 -55.5 -125.0Q-36 -137 -21 -167L-11 -192Q-5 -203 3.0 -204.5Q11 -206 18 -194Q23 -185 27.0 -173.5Q31 -162 37 -145Q51 -111 61.5 -62.5Q72 -14 81 45Q97 143 112.0 246.0Q127 349 143 463H62L64 472L103 476Q127 479 139.0 492.0Q151 505 158 530Q185 617 245.0 664.0Q305 711 393 711Q443 711 474.0 689.5Q505 668 505 635Q505 608 488.0 592.0Q471 576 447 576Q400 576 369 639L365 655Q356 676 344.5 675.5Q333 675 325 660Q308 636 294.0 593.0Q280 550 269 481H391L386 460L266 461Q250 355 234.5 248.5Q219 142 201 44Q187 -30 164.5 -84.5Q142 -139 104 -177Q73 -208 34.5 -224.0Q-4 -240 -45 -240Z"/><path transform="translate(5465 0)" fill="#d9362a" stroke="#d9362a" stroke-width="20" stroke-linejoin="round" d="M71 -18Q31 -18 5.0 -0.5Q-21 17 -21 47Q-21 73 -4.0 89.0Q13 105 38 105Q61 105 83.5 91.0Q106 77 120 31Q125 18 133.5 17.5Q142 17 149 28Q163 50 173.0 84.0Q183 118 189 159Q196 200 203.0 248.5Q210 297 218 352Q226 399 235.5 458.0Q245 517 255 584Q262 624 224 641L205 650L207 660H458L456 650L438 641Q402 625 394 584L349 335Q333 251 315.5 201.5Q298 152 278 119Q240 53 185.5 17.5Q131 -18 71 -18Z"/><path transform="translate(5858 0)" fill="#d9362a" stroke="#d9362a" stroke-width="20" stroke-linejoin="round" d="M220 -15Q145 -15 98.0 34.0Q51 83 51 173Q51 237 73.0 295.0Q95 353 134.5 398.5Q174 444 226.0 470.0Q278 496 339 496Q402 496 435.5 467.5Q469 439 469 392Q469 353 432.5 315.0Q396 277 330.0 246.5Q264 216 175 200Q176 131 205.0 99.0Q234 67 285 67Q328 67 364.0 90.5Q400 114 425 146L435 139Q415 100 383.5 65.0Q352 30 311.0 7.5Q270 -15 220 -15ZM332 469Q309 469 282.5 449.0Q256 429 232.5 394.5Q209 360 193.5 315.5Q178 271 175 221Q285 251 331.5 300.0Q378 349 378 411Q378 441 365.0 455.0Q352 469 332 469Z"/><path transform="translate(6314 0)" fill="#d9362a" stroke="#d9362a" stroke-width="20" stroke-linejoin="round" d="M25 18 L57 159 L73 159 C70 80 110 14 180 14 C220 14 244 36 244 71 C244 108 214 132 166 165 C106 207 73 245 86 312 C101 399 173 496 291 496 C335 496 373 477 407 481 L377 350 L362 350 C365 421 335 475 279 475 C240 475 214 452 214 418 C214 383 246 354 294 322 C363 276 388 237 375 173 C357 74 273 -15 164 -15 C110 -15 70 7 25 18 Z"/><path transform="translate(6721 0)" fill="#d9362a" stroke="#d9362a" stroke-width="20" stroke-linejoin="round" d="M138 -15Q104 -15 79.5 5.5Q55 26 55 67Q55 90 60.0 117.0Q65 144 71 170L115 367Q124 406 88 424L69 432L70 443L259 497L268 489L198 183Q192 158 188.0 138.0Q184 118 184 101Q184 79 194.0 69.5Q204 60 220 60Q243 60 271.0 76.5Q299 93 336 128Q337 134 339 141L373 302Q381 341 388.5 380.5Q396 420 403 460L529 497L540 488L461 125Q453 90 453 70Q453 49 471 49Q485 49 501.0 60.5Q517 72 540 95L552 83Q527 46 488.5 15.5Q450 -15 401 -15Q370 -15 349.5 6.5Q329 28 329 68Q329 83 331 97Q279 45 230.5 15.0Q182 -15 138 -15Z"/><path transform="translate(7276 0)" fill="#d9362a" stroke="#d9362a" stroke-width="20" stroke-linejoin="round" d="M25 18 L57 159 L73 159 C70 80 110 14 180 14 C220 14 244 36 244 71 C244 108 214 132 166 165 C106 207 73 245 86 312 C101 399 173 496 291 496 C335 496 373 477 407 481 L377 350 L362 350 C365 421 335 475 279 475 C240 475 214 452 214 418 C214 383 246 354 294 322 C363 276 388 237 375 173 C357 74 273 -15 164 -15 C110 -15 70 7 25 18 Z"/><path transform="translate(7904 0)" fill="#d9362a" stroke="#d9362a" stroke-width="20" stroke-linejoin="round" d="M355 -18Q261 -18 192.0 16.5Q123 51 85.5 116.5Q48 182 48 275Q48 358 76.5 431.0Q105 504 157.5 559.5Q210 615 281.5 646.5Q353 678 439 678Q490 678 535.5 667.0Q581 656 628 630L604 476H594L560 582Q547 625 519.5 641.5Q492 658 447 658Q370 658 312.5 609.5Q255 561 223.0 474.5Q191 388 191 274Q191 149 239.5 75.5Q288 2 378 2Q417 2 441.5 17.0Q466 32 485 63L559 183H569L545 31Q506 9 461.5 -4.5Q417 -18 355 -18Z"/><path transform="translate(8504 0)" fill="#d9362a" stroke="#d9362a" stroke-width="20" stroke-linejoin="round" d="M33 -6 27 0 118 436Q126 474 132.0 504.5Q138 535 145 573Q153 616 112 630L96 635L98 645L289 701L296 694L228 375Q278 427 334.5 461.5Q391 496 439 496Q471 496 491.5 476.5Q512 457 512 416Q512 395 508.0 372.5Q504 350 498 326L448 122Q444 103 440.0 89.5Q436 76 436 68Q436 47 454 47Q480 47 527 91L536 82Q512 45 471.0 15.0Q430 -15 378 -15Q345 -15 327.0 0.5Q309 16 309 44Q309 65 314.0 87.5Q319 110 326 134L371 310Q378 337 383.5 359.5Q389 382 389 398Q389 433 356 433Q307 433 227 353L197 214Q184 153 174.5 103.5Q165 54 156 0Z"/><path transform="translate(9049 0)" fill="#d9362a" stroke="#d9362a" stroke-width="20" stroke-linejoin="round" d="M46 -7 36 0 112 366Q117 392 109.0 404.5Q101 417 82 425L67 432L69 442L243 497L253 488L226 323Q247 371 275.0 410.0Q303 449 334.0 472.5Q365 496 396 496Q427 496 446.0 479.5Q465 463 465 436Q465 408 448.5 390.0Q432 372 404 372Q382 372 362.0 383.5Q342 395 323 417Q288 391 263.0 349.5Q238 308 217 259L207 213Q196 160 186.0 107.0Q176 54 166 0Z"/><path transform="translate(9475 0)" fill="#d9362a" stroke="#d9362a" stroke-width="20" stroke-linejoin="round" d="M217 552Q189 552 168.5 570.5Q148 589 148 620Q148 655 172.5 677.5Q197 700 228 700Q258 700 277.0 681.0Q296 662 296 632Q296 598 272.0 575.0Q248 552 217 552ZM124 -15Q93 -15 73.0 1.0Q53 17 53 48Q53 66 57.0 91.0Q61 116 66 141L113 366Q122 407 84 424L68 432L69 443L257 497L267 488L189 126Q185 108 183.0 95.5Q181 83 181 71Q181 49 201 49Q216 49 231.0 58.5Q246 68 269 90L278 81Q253 44 214.5 14.5Q176 -15 124 -15Z"/><path transform="translate(9760 0)" fill="#d9362a" stroke="#d9362a" stroke-width="20" stroke-linejoin="round" d="M25 18 L57 159 L73 159 C70 80 110 14 180 14 C220 14 244 36 244 71 C244 108 214 132 166 165 C106 207 73 245 86 312 C101 399 173 496 291 496 C335 496 373 477 407 481 L377 350 L362 350 C365 421 335 475 279 475 C240 475 214 452 214 418 C214 383 246 354 294 322 C363 276 388 237 375 173 C357 74 273 -15 164 -15 C110 -15 70 7 25 18 Z"/><path transform="translate(10167 0)" fill="#d9362a" stroke="#d9362a" stroke-width="20" stroke-linejoin="round" d="M144 -15Q113 -15 92.5 1.5Q72 18 72 50Q72 70 76.0 93.5Q80 117 85 144L154 460H71L74 472L110 476Q138 479 159.0 490.0Q180 501 199 521L295 618H310L282 481H391L386 460H277L208 127Q204 108 202.0 94.5Q200 81 200 72Q200 62 206.0 56.0Q212 50 219 50Q233 50 249.0 61.5Q265 73 289 96L301 86Q276 49 236.0 17.0Q196 -15 144 -15Z"/><path transform="translate(10509 0)" fill="#d9362a" stroke="#d9362a" stroke-width="20" stroke-linejoin="round" d="M128 -13Q94 -13 72.5 8.5Q51 30 51 60Q51 98 78.5 124.0Q106 150 142 150Q176 150 197.5 128.0Q219 106 219 75Q219 38 191.5 12.5Q164 -13 128 -13Z"/></g></svg>
